ply
format ascii 1.0
comment author: Alexander Kryvonos
comment object: reconstructed scene with color
element vertex 77
property double x
property double y
property double z
property uchar red
property uchar green
property uchar blue
end_header
3751.724106 -5086.177725 8393.313944 140 129 126
4730.828496 -4655.276596 8709.163716 244 239 235
3774.827812 -5113.972218 8408.894132 137 126 123
-1244.431384 540.542543 1906.182400 207 201 191
-1219.335612 592.851221 1908.321093 124 111 98
3715.673436 -5007.722517 8352.769554 142 131 129
3404.665240 -4590.395947 7990.535177 245 241 236
-1231.771435 521.327424 1891.720191 213 207 198
4161.043701 -4482.089448 7853.847414 134 117 112
1786.997158 -1087.575793 2373.389351 232 227 224
3677.347605 -4558.989424 8290.052993 149 132 125
-1245.431149 313.331454 2062.043664 241 234 225
-1191.493791 606.603811 1890.982921 111 100 90
4258.753621 -4568.894487 7993.545797 135 118 114
-1208.983810 594.106657 1978.173619 123 111 102
-1161.408299 589.061228 1843.635082 109 99 89
-1172.532113 576.901463 1888.104811 124 113 101
-1217.890293 376.657458 2062.639356 231 225 215
4321.386571 -4766.477068 8586.305145 202 172 149
-1150.508547 582.407796 1826.639155 109 98 88
1935.598159 -1015.529674 2335.444336 229 223 221
1623.199298 -111.573740 2249.660495 194 185 176
1570.558557 -336.419081 2304.291794 109 105 87
1725.402071 -468.285583 2247.642257 111 100 93
1746.045094 -867.860007 2274.634083 171 163 160
1838.801400 -143.746009 2201.286535 61 58 44
-1204.301948 683.542161 1871.366809 131 115 95
1579.128951 -106.963252 2188.485888 194 185 176
1548.639574 -380.914775 2285.493851 203 196 191
1621.493920 -636.217409 2218.376929 189 182 176
1664.078199 -182.905978 2228.635067 87 82 68
2052.643951 -544.904232 2371.245323 165 161 155
1827.452774 -712.439843 2422.834697 158 150 145
4326.917134 -5137.638343 8873.951721 127 107 100
-1255.913295 576.024390 2089.011294 212 206 196
1719.426619 -211.436347 2135.281998 61 57 46
-1146.492943 527.120558 1906.844148 212 206 197
1830.459591 -245.016842 2253.423290 73 71 59
-5387.825672 4687.512620 7960.261522 152 144 133
1657.896493 -927.320095 2373.494200 167 159 157
1811.951634 -310.835200 2453.853671 128 120 107
1883.493847 -262.504031 2246.148381 173 166 158
4129.654047 -4778.199292 8728.704586 238 208 178
-1252.213450 571.240431 2083.638082 212 206 197
-1151.588663 669.727623 2010.771958 95 85 74
1637.913118 -380.067919 2074.262774 85 77 69
1616.864317 -1078.587458 2491.642094 236 230 227
1801.070370 -229.518786 2235.934187 61 59 48
1617.739765 -415.761562 2201.538812 140 130 122
1494.136778 -710.398571 2296.201218 191 183 179
1664.629354 -832.508405 2168.018265 182 175 172
1896.645069 -746.961210 2395.525136 140 133 128
-1198.760175 269.242572 2066.436150 241 233 225
1835.578824 52.877470 2113.616842 57 53 42
3528.578126 -3502.770668 6499.634411 244 238 234
1456.008446 -357.616651 2148.795221 213 207 200
-2240.846163 1097.216666 3667.185128 136 125 115
5448.125821 -4889.144305 9680.560095 245 240 236
1630.473021 2.901391 2201.154408 54 53 35
1773.235935 -310.550568 2400.018296 120 113 97
-4302.478127 1146.907893 8668.332288 89 84 75
1773.915881 -862.731573 2115.983730 175 166 164
1519.051379 -535.610874 2309.017592 222 216 212
-2953.545342 1450.256137 4832.825595 127 117 107
1526.254024 -596.603108 2292.000712 206 200 196
1594.593209 -307.773912 2158.010928 129 121 109
-3554.739910 937.992462 7182.352868 91 85 76
34.202536 -86.043189 401.932167 241 236 229
1450.857696 -310.549394 2250.028981 86 77 62
1843.169847 -316.440265 2454.052754 122 115 103
1529.985786 2.673504 2090.939737 56 55 37
1804.737078 -18.294808 2161.421468 52 50 36
2075.598489 68.056077 2386.843694 56 52 41
1441.738420 4.449291 1969.448539 55 54 36
12.881414 -181.496570 670.459966 186 182 178
11.406666 -160.847296 594.491384 249 246 241
11.261014 -158.381426 587.287006 249 246 241
