ply
format ascii 1.0
comment author: Alexander Kryvonos
comment object: reconstructed scene with color
element vertex 384
property double x
property double y
property double z
property uchar red
property uchar green
property uchar blue
end_header
-3.724064 -1.701042 3.119604 37 32 25
-3.940017 -1.404418 3.119805 168 156 129
-3.776084 -1.365981 3.008345 161 145 120
-2.670881 -0.096850 3.288352 26 25 24
-3.887089 -1.377942 3.075642 168 156 128
-3.764243 -1.727692 3.156676 36 32 25
-3.910844 -1.959465 2.729214 167 152 128
-3.570053 -2.949392 2.547487 168 159 133
-6.150517 -0.598196 4.185013 153 135 120
-2.951311 0.117388 3.389211 128 110 97
-3.579101 -2.422332 2.673447 166 157 127
0.481604 -0.744087 1.732633 38 23 26
-1.950409 0.127924 3.328462 107 73 70
0.991339 -1.226843 1.645753 247 235 213
-4.294665 -0.579952 3.320965 165 146 126
0.931807 -0.802525 1.649321 55 21 31
1.717460 -2.316522 1.891379 208 203 188
-4.333745 -0.470812 2.978289 157 139 114
0.969731 -1.080683 1.639510 93 57 63
-2.988080 0.126610 3.431831 128 110 97
2.136947 -2.254481 1.696697 192 191 185
-3.100115 -3.498065 2.902976 149 141 119
0.916781 -0.791700 1.650850 58 22 31
-2.684340 -0.038651 3.343065 25 25 25
-4.121375 -0.485389 3.251845 168 148 127
-1.056240 -2.816737 2.618544 120 82 67
0.296613 0.241728 1.738203 24 23 25
-3.166028 -3.096831 2.877501 60 53 44
0.878886 -0.582423 1.670471 159 77 86
1.021366 -1.226108 1.632429 245 235 212
-1.799710 0.283817 3.381634 163 135 118
1.005666 -1.217447 1.624357 245 235 212
-5.436141 -0.503957 3.949539 154 140 114
-1.680114 -2.704988 2.714091 164 122 102
-0.138881 -2.555440 2.512335 171 124 114
0.568841 0.105673 1.616527 125 120 118
0.354903 -0.396370 1.803432 40 29 28
-3.742678 -2.268516 2.738171 169 156 123
1.146496 -1.052125 1.614332 59 48 49
-2.704789 -1.525456 3.174094 162 139 126
-3.059241 -3.701573 2.841345 156 146 127
-2.394537 -0.335047 3.144666 98 61 51
0.275081 -0.508017 1.825075 83 64 63
1.586412 -2.258723 1.947794 201 188 173
1.096841 -0.822802 1.619922 161 136 117
0.331042 -0.424012 1.796299 48 31 37
1.545561 -0.313773 1.406874 186 181 165
-2.596216 -1.282520 3.076160 45 37 29
-4.248678 -0.739382 3.176625 167 147 119
0.094978 -2.926885 2.388747 156 116 101
-4.316787 -0.904443 3.128611 165 154 128
2.038719 -2.311804 1.728063 204 203 190
1.347971 -0.541110 1.537717 110 91 83
0.137325 -2.765173 2.475758 165 118 100
1.480550 -0.646959 1.499926 155 134 117
1.578130 -2.246994 1.946615 205 192 183
0.524132 0.032801 1.624713 63 63 63
-0.320091 0.337581 1.823646 234 216 211
1.480600 -0.644316 1.497402 155 134 117
1.571813 -0.070079 1.298665 200 193 175
-3.127044 -0.156608 3.366684 28 26 27
-4.289549 -1.172165 3.093559 167 150 122
-5.923265 -0.650571 4.036927 155 137 122
0.313846 -0.304049 1.832002 129 129 116
-1.646819 -2.927034 2.670184 115 82 72
0.564991 -2.835624 2.299621 120 85 76
0.185113 -0.619066 1.814562 49 39 29
-0.029607 0.238814 1.818618 37 35 31
-4.363494 -0.960865 3.118382 174 155 125
-0.542586 0.979237 1.359735 236 226 212
-2.204368 -2.994960 2.658252 132 98 80
0.668345 -2.661828 2.286568 132 96 74
-0.506145 1.155677 1.195564 39 41 49
-1.846374 -3.121820 2.612013 154 121 97
-0.322027 0.340168 1.833037 234 216 211
-3.549475 -2.735006 2.489595 172 162 142
0.169763 0.294457 1.772965 203 185 168
1.487185 -2.444769 2.020347 102 66 65
-3.487127 -2.845967 2.622005 147 139 116
0.073742 -0.471825 1.906281 126 108 92
0.471818 0.148048 1.681335 110 100 95
-4.681193 -0.199067 3.618213 80 73 61
-3.693206 -2.544392 2.511965 125 117 84
1.076471 -0.931159 1.613585 176 157 133
-0.352422 0.182851 1.912426 118 116 106
1.290908 -0.635407 1.526168 162 139 111
2.168698 -2.347102 1.697367 57 64 61
0.387202 -2.622283 2.380435 105 68 61
1.990869 -2.270037 1.732058 210 209 200
0.882588 -0.385071 1.707396 62 51 47
-3.460346 -2.552456 2.639166 146 130 112
0.754437 -0.943143 1.673355 200 145 144
0.488586 0.286921 1.668032 29 23 21
-0.362464 -3.058019 2.530211 165 115 112
0.479247 0.287643 1.664559 29 23 21
1.214411 -0.878216 1.638687 157 135 116
-1.907341 -2.937145 2.686875 159 119 102
-3.590600 -2.729239 2.697357 160 146 124
0.778416 -2.562951 2.327728 96 63 66
0.469783 -0.300677 1.817791 99 97 91
0.141885 0.975991 1.213795 230 222 215
0.532371 -0.419360 1.775195 50 38 38
0.450149 -0.603268 1.807092 118 92 90
0.175532 -2.804714 2.409112 162 114 103
0.453742 0.001345 1.620566 86 83 78
0.631536 -0.650147 1.716092 192 94 111
1.533766 -1.051412 1.520649 188 173 152
0.188013 -0.618928 1.818206 49 39 29
0.026730 -0.673144 1.866046 162 141 118
-4.337334 0.186465 3.540292 141 122 107
0.396029 -0.591637 1.808105 166 135 123
-4.232632 0.526435 2.335540 165 156 144
0.625715 -0.801562 1.710301 167 101 110
0.988856 -2.752397 2.191885 163 120 109
1.367694 -0.246535 1.526270 122 112 91
0.470412 -2.752378 2.321864 135 96 88
-3.711284 -2.509325 2.595435 164 155 136
1.079469 -0.013523 1.578704 30 28 28
1.401146 0.117110 1.458859 188 176 156
0.326896 -0.111737 1.805896 75 73 60
1.593094 -0.360348 1.347115 28 28 29
-0.340615 0.821085 1.469548 234 221 211
0.822548 -0.660623 1.681101 48 31 33
-3.180268 -3.338297 2.892926 64 64 44
1.181264 -0.852566 1.597402 150 130 115
0.233215 -0.018812 1.783924 128 125 121
1.195552 -1.096193 1.603146 32 29 28
1.021944 -0.168587 1.656798 111 109 103
0.208105 0.303784 1.745454 215 199 182
-0.937872 0.117382 1.898612 163 137 126
1.253544 -2.580531 2.071821 159 123 105
0.582805 -2.827801 2.366160 124 83 83
0.258418 -0.743169 1.778466 95 53 59
-0.521298 0.214105 1.920304 51 47 41
-1.733120 -1.097967 3.086493 159 110 96
-0.415985 0.985479 1.351825 120 121 110
1.727412 -0.747753 1.309848 110 102 104
-0.543930 0.237210 1.941257 35 38 32
1.055127 -1.014811 1.618961 172 142 135
0.921898 -1.198235 1.673412 139 82 80
0.471064 -2.755504 2.323975 135 96 88
-4.765150 -0.556344 2.885361 146 124 117
1.421840 -0.502246 1.507565 140 118 105
-0.230447 1.199265 1.076042 208 198 192
0.248722 -0.160459 1.837859 144 144 130
1.913909 -1.350922 1.260502 29 30 31
-0.522832 -2.237400 2.716949 96 60 57
1.547645 -0.170891 1.416019 187 174 163
0.491433 -2.586452 2.371338 75 63 53
-0.432382 1.098205 1.222064 36 36 39
1.282729 -0.468283 1.553324 157 134 113
1.133322 -1.317676 1.611478 94 91 87
1.018575 -0.170465 1.647978 115 113 108
1.786870 -1.368470 1.455460 165 162 154
0.186494 -0.425457 1.877689 107 87 72
0.522802 0.033942 1.622192 63 63 63
-2.167662 0.248516 3.372054 159 139 119
-1.538683 0.705716 2.587459 181 159 139
0.095196 -0.997422 1.809088 45 31 29
1.471240 -0.014908 1.497218 148 141 128
1.341071 -2.355165 2.075761 156 117 98
-0.413783 1.181378 1.128911 36 35 36
-0.572593 1.163347 1.198108 227 223 215
1.738922 -1.689411 1.779425 212 206 193
0.228777 0.766561 1.389372 226 217 201
0.278567 0.550251 1.573746 228 217 199
1.764998 -1.421896 1.530032 27 29 28
-2.081892 -2.496930 2.975848 114 74 67
1.703122 -0.496797 1.247976 35 36 30
1.822361 -1.798262 1.699849 205 201 187
0.945435 -0.823642 1.654081 51 21 29
1.650822 -0.455179 1.334054 206 199 183
1.910287 -2.348986 1.797401 206 202 193
-0.036871 0.214798 1.849567 42 39 37
0.630053 0.057649 1.594440 122 119 108
0.753138 -0.994222 1.634465 159 88 94
-0.326877 -0.217714 2.195485 57 47 48
-0.584104 1.095670 1.264771 40 39 34
-1.611342 -1.384272 2.940957 162 113 99
1.041510 -0.570753 1.647841 52 43 34
-0.717608 0.608328 1.834741 233 218 210
-0.441220 0.709788 1.540057 90 81 70
-3.076670 -0.599769 3.070471 64 58 39
-0.421211 0.542981 1.732228 237 220 213
-0.850533 1.147031 1.370111 31 32 29
1.605148 -0.330971 1.333171 31 30 36
0.994225 -0.448334 1.717738 47 36 33
-0.341782 1.213302 1.101374 35 39 45
-0.721059 0.612720 1.841766 235 219 210
0.291805 0.288302 1.745416 56 47 31
1.456364 -0.385697 1.499852 129 113 99
0.991234 -1.078031 1.584517 36 30 21
1.473820 -0.125236 1.484909 37 34 27
-0.565971 0.887751 1.462923 43 41 37
-0.158030 1.136092 1.106419 227 221 216
-0.602967 1.127573 1.216552 43 43 48
1.361259 -0.865092 1.564697 175 152 132
1.762651 -1.420266 1.527400 27 29 28
1.536375 -0.609639 1.417708 43 37 37
-0.533260 0.373230 1.834068 104 87 76
0.012321 -0.830870 1.829945 177 153 138
-0.648957 0.473253 1.840916 46 40 39
-1.712787 0.346819 3.239112 161 138 124
1.675712 -0.526347 1.306175 40 38 42
-1.968153 0.782653 3.100080 180 148 137
1.708375 -0.797045 1.331178 208 200 184
1.524877 -1.809648 1.841961 220 216 206
0.510790 0.006564 1.587279 54 60 49
0.534683 -0.091381 1.701296 144 136 128
-2.468192 0.330982 3.590021 156 135 122
-2.828670 -1.382308 3.341289 53 44 33
-0.036260 0.212036 1.831603 41 38 37
0.504748 -0.964381 1.739212 119 63 73
-0.956937 1.145272 1.402466 237 224 220
-2.473495 0.331515 3.594494 156 135 122
-0.195936 0.490163 1.734916 236 216 207
-0.070328 0.942198 1.299250 61 50 57
-3.811561 -2.568291 2.845790 165 158 128
-0.489685 1.121740 1.189476 175 168 148
-0.534503 0.373797 1.838761 104 87 76
-0.288315 0.725094 1.534952 238 224 210
-0.756403 1.191851 1.235572 142 135 124
0.681802 0.284140 1.594535 21 20 20
-0.662099 1.183133 1.235112 233 228 214
1.505217 -0.046105 1.288309 96 98 85
0.107565 0.064583 1.996097 124 124 117
-0.472024 0.864714 1.439365 241 223 219
0.859613 -0.977458 1.613345 163 125 126
1.769662 -1.724405 1.734095 132 124 117
-2.066130 -2.433634 2.887011 113 74 61
-0.015878 0.907245 1.332255 227 216 203
-0.353415 0.480293 1.749720 65 49 43
-0.159025 1.144014 1.111524 227 221 216
-5.605797 -0.460150 3.429258 75 72 56
1.627917 -0.161676 1.275902 212 203 182
-0.934382 -2.825608 2.647484 75 64 57
1.333969 -0.999590 1.559791 178 158 143
-5.412575 -0.440143 3.310447 79 74 57
0.337715 -0.829125 1.689873 158 117 121
-0.106772 0.747974 1.488346 236 221 215
-0.209266 1.074956 1.222618 32 33 26
0.490170 -0.266889 1.769233 106 105 94
1.222467 -0.169929 1.551447 75 65 55
-0.124983 0.552001 1.673374 39 36 35
1.635497 -0.286726 1.318744 198 188 178
0.938507 -0.027953 1.619511 36 36 35
0.242410 0.934899 1.199081 32 33 31
1.586259 -0.179698 1.343110 26 30 35
-0.767724 1.225931 1.230816 42 47 42
1.628472 -0.349550 1.284669 33 36 33
1.499207 -0.293399 1.460864 126 106 102
1.623133 -0.134998 1.225690 30 29 38
-1.409457 -3.127804 2.597325 163 122 111
0.554024 -0.480660 1.769874 41 34 19
0.975221 0.129066 1.469321 75 72 77
-0.709065 1.235088 1.205900 231 225 217
-0.524164 0.530677 1.789839 240 222 214
0.795557 0.131310 1.515149 99 95 77
0.024352 -0.867625 1.831394 174 147 128
0.182125 0.978433 1.213582 230 223 216
-1.243472 0.205716 2.464480 167 140 129
-0.432649 0.664436 1.626931 237 221 211
0.243369 0.846022 1.400118 231 221 207
0.690534 0.285951 1.613339 21 20 20
-0.296838 1.186533 1.110698 174 168 159
0.105467 0.443401 1.680000 220 212 200
1.674803 -1.010651 1.420159 155 140 114
0.994114 -0.447726 1.718626 47 36 33
-3.132132 -0.608716 3.123887 78 71 52
-4.289926 -2.348883 3.321855 165 151 133
0.573466 -0.961649 1.701041 116 78 81
0.693789 0.017660 1.519425 119 115 104
1.450397 -0.861151 1.515188 146 125 117
1.672173 -0.392556 1.272800 209 198 185
0.418784 0.493045 1.621183 42 34 39
0.211943 0.641704 1.487018 233 218 204
0.733908 -0.916239 1.631254 187 130 132
1.595880 -0.745687 1.433089 110 102 84
-0.400003 1.214868 1.091330 221 220 211
0.125489 -1.199447 1.791027 219 132 143
-1.033698 1.338442 1.330630 34 36 34
0.901606 0.190690 1.492347 42 36 35
1.697670 -1.477430 1.583749 171 167 150
1.845324 -1.075860 1.248636 179 180 170
0.558513 0.288135 1.746350 22 21 20
1.891806 -1.979473 1.712028 109 103 91
-0.500337 1.098097 1.240567 226 221 209
1.551941 -1.724525 1.824965 181 171 154
1.657547 -0.801809 1.440603 149 136 122
1.741417 -1.459992 1.393279 27 30 29
0.295219 -0.987587 1.742919 110 60 68
-0.364028 0.105382 1.914686 116 112 106
-0.227448 0.388404 1.774188 36 33 21
0.903153 -0.967778 1.666657 154 90 92
0.535223 -0.094285 1.697890 144 136 128
-0.167573 1.154089 1.109269 228 221 215
1.529335 -0.023413 1.463632 26 25 25
-0.351760 0.590716 1.668458 238 220 210
-0.120497 1.154807 1.064246 38 42 45
1.415108 -2.392081 2.135049 155 117 98
-0.170953 0.608042 1.631460 153 137 128
-0.356315 -0.056448 1.935267 62 64 52
1.824827 -0.803082 1.231996 202 198 186
1.161787 0.007562 1.539178 27 29 29
1.176384 -0.080859 1.549318 109 106 96
0.604150 -0.032359 1.576512 117 120 105
-1.260900 0.207572 2.500439 166 137 126
-0.677856 1.052892 1.363735 241 226 222
-2.951581 -0.274924 3.375311 28 25 22
1.111204 -2.775556 2.148612 160 121 110
1.786127 -1.309735 1.457668 180 174 163
-0.245949 1.131649 1.106605 41 39 35
0.089602 0.814234 1.332753 229 216 204
1.878366 -1.208310 1.279962 36 36 33
-0.887672 1.263164 1.274455 227 223 215
0.361632 0.785432 1.371840 127 114 112
0.192369 0.368861 1.718667 173 154 150
-0.435774 1.059678 1.208384 95 78 80
-0.241014 1.034531 1.301216 39 39 36
2.059033 -2.367215 1.676284 27 30 24
-0.122808 1.176386 1.082128 37 41 44
1.257551 -0.625141 1.587129 124 101 78
0.148492 0.471403 1.671733 230 216 204
-0.366143 1.085411 1.245242 34 36 39
0.291541 0.353241 1.625232 219 209 194
-0.357309 0.865558 1.431080 33 31 28
2.252093 -2.205602 1.742986 72 72 63
0.387987 -1.218465 1.762215 201 114 132
0.292186 0.397758 1.691027 223 213 196
1.539972 0.043170 1.389984 28 27 25
0.180549 0.991391 1.197806 214 204 198
0.003682 1.028305 1.159180 230 217 215
0.543620 -0.694927 1.709624 49 35 27
0.518033 0.265509 1.617571 23 22 22
-0.240514 0.332490 1.870358 224 209 194
0.144825 1.055272 1.157008 35 35 30
0.005949 0.849295 1.393581 34 40 37
0.974007 -1.062109 1.550564 36 30 21
-0.297145 1.182283 1.066685 28 40 26
1.879998 -1.362770 1.361051 36 29 33
1.100393 0.150431 1.466443 94 81 76
-0.823908 0.080390 1.680183 161 134 123
1.861707 -1.948452 1.683270 110 102 92
0.915400 0.186650 1.509637 43 40 39
0.248972 -0.716310 1.727025 86 49 54
-1.988334 0.420959 3.580103 162 135 125
0.383155 -0.095808 1.701740 68 69 63
1.717346 -1.271000 1.498249 199 188 174
0.642260 -0.166571 1.522670 111 111 101
-0.016666 -0.524647 1.843983 146 119 111
1.513238 -0.136977 1.328467 36 33 30
-1.077137 1.395266 1.384158 40 39 38
-0.087594 1.018062 1.195057 240 226 214
0.303317 0.680573 1.452874 36 32 26
0.623664 0.289156 1.817421 22 22 21
1.619061 -0.189055 1.300276 201 193 179
1.697479 -0.313282 1.245090 204 200 184
1.440305 -1.110939 1.559399 130 117 96
-0.942961 1.129089 1.382239 237 225 220
1.593892 -0.726187 1.337151 28 33 36
-0.250885 -0.045745 2.271391 65 68 57
0.302899 0.678977 1.450417 36 32 26
-3.797081 0.321934 4.166295 137 120 109
-0.257835 1.022527 1.212708 132 135 124
1.356849 -1.474254 1.621969 221 214 205
1.366855 -0.815269 1.495828 94 84 55
0.695581 0.337158 1.655517 20 20 19
-3.590611 -3.004033 2.833730 50 45 35
-0.599906 1.122863 1.255756 116 118 106
0.491751 0.907940 1.230732 37 34 36
0.006792 0.846943 1.399489 35 38 34
-0.308162 0.595664 0.617106 40 41 38
-0.308249 0.596499 0.617069 41 43 39
-0.177604 0.296160 0.400092 45 49 46
-0.177710 0.296054 0.400333 45 49 46
-0.287866 0.551625 0.582785 55 58 53
-0.236076 0.427972 0.497982 35 37 31
-0.148094 0.228580 0.350815 66 74 65
-0.226389 0.411893 0.480494 63 65 68
-0.126090 0.173993 0.314607 87 91 96
-0.128680 0.180248 0.318902 92 92 95
-0.127306 0.177187 0.316591 91 92 95
-0.110820 0.139589 0.288955 85 88 90
-0.119014 0.161023 0.302330 88 91 88
